<svg version="1.2" xmlns="http://www.w3.org/2000/svg" viewBox="0 0 906 528" width="906" height="528"><style></style><path  d="m186.1 348.9l-69.1-0.1q-18.7 0-18.6-18.7l0.2-156.6q0.1-18.7 18.8-18.6l66 0.1q30.5 0 47.2 13.5 16.8 13.3 16.7 36.9 0 15.7-8 27-8 11.2-22 16.4 16.5 4.7 25.5 16.6 9.4 11.6 9.3 29.4 0 25.9-17.6 40.2-17.4 14-48.4 13.9zm-53.6-167.3l-0.1 55.5 44.8 0.1q36 0.1 36-27.7 0.1-27.8-35.9-27.8zm-0.2 82.2l-0.1 58.3 49.5 0.1q36.3 0.1 36.4-29.1 0-29.2-36.3-29.2zm169.3-76.7q-9.7-0.1-15.2-4.7-5.2-5-5.2-13.5 0.1-8.8 5.3-13.5 5.5-4.7 15.1-4.7 20.4 0.1 20.3 18.2 0 18.2-20.3 18.2zm-0.3 163.9q-8.3 0-12.7-5-4.3-4.9-4.3-13.7l0.1-101q0.1-18.7 17.1-18.7 17.3 0.1 17.3 18.8l-0.2 100.9q0 8.8-4.4 13.8-4.4 4.9-12.9 4.9zm70.1 0.4q-17 0-17-17.6l0.2-104q0-17.3 16.8-17.3 16.7 0 16.7 17.3v5.8q6.9-11.5 18.4-17.6 11.9-6 26.5-6 47.5 0.1 47.4 55.4l-0.1 66.6q0 17.6-17.1 17.5-17.3 0-17.3-17.6l0.2-64.9q0-15.7-6.1-22.8-5.7-7.2-18.1-7.2-15.1-0.1-24.2 9.6-8.8 9.3-8.8 25l-0.1 60.2q-0.1 17.6-17.4 17.6zm206.4 50.4q-14.8 0-28.9-2.8-13.7-2.8-25-8.6-6.6-3.3-7.9-8.2-1.1-5.3 1.1-9.9 2.2-4.7 6.6-6.6 4.7-2.2 9.9 0.3 12.1 6 22.8 8 11 1.7 18.7 1.7 36.9 0 36.9-35.4v-18.5q-5.7 11.3-17.9 17.9-11.8 6.6-26.4 6.5-18.1 0-31.6-8.3-13.4-8.5-20.8-23.7-7.4-15.1-7.4-35.2 0-20.1 7.5-34.9 7.4-15.1 20.9-23.4 13.5-8.5 31.7-8.4 14.5 0 26.4 6.3 11.8 6.4 17.2 17.4l0.1-5.8q0-8.5 4.4-12.9 4.7-4.4 12.6-4.4 17.1 0.1 17.1 17.4l-0.2 105.9q-0.1 32.7-17.4 49.2-17.4 16.5-50.4 16.4zm-0.7-81.7q16 0 25.3-10.9 9.4-11 9.4-30 0.1-19-9.3-29.7-9.3-11.1-25.2-11.1-16 0-25.3 11-9.4 10.7-9.4 29.7-0.1 18.9 9.3 30 9.3 11 25.2 11zm165.5 32.5q-20.9-0.1-36.3-8.6-15.4-8.6-23.9-24.3-8.5-15.9-8.4-37.4 0-21.4 8.6-37.1 8.5-15.7 23.9-24.2 15.4-8.5 36.3-8.4 20.9 0 36.3 8.6 15.4 8.5 23.9 24.2 8.5 15.7 8.5 37.2-0.1 21.4-8.6 37.4-8.6 15.6-24 24.1-15.4 8.5-36.3 8.5zm0.1-26.2q15.3 0.1 24.7-10.9 9.4-11.3 9.4-33 0.1-22-9.3-32.8-9.3-11-24.7-11-15.4 0-24.8 11-9.3 10.7-9.4 32.7 0 21.7 9.3 33 9.4 11 24.8 11z"/></svg>